<?xml version="1.0" standalone="no"?>
<!DOCTYPE svg PUBLIC "-//W3C//DTD SVG 20010904//EN"
 "http://www.w3.org/TR/2001/REC-SVG-20010904/DTD/svg10.dtd">
<svg version="1.0" xmlns="http://www.w3.org/2000/svg"
 width="755.000000pt" height="509.000000pt" viewBox="0 0 755.000000 509.000000"
 preserveAspectRatio="xMidYMid meet">

<g transform="translate(0.000000,509.000000) scale(0.100000,-0.100000)"
fill="#000000" stroke="none">
<path d="M2065 4836 c-16 -7 -106 -96 -200 -197 -93 -101 -257 -276 -364 -389
-106 -113 -197 -215 -202 -228 -26 -69 4 -134 72 -152 22 -6 124 -10 235 -10
l196 2 2 -399 c2 -538 -20 -503 321 -503 203 0 223 2 253 20 61 37 62 47 62
488 l0 398 217 3 c128 1 225 6 237 13 51 26 71 90 45 141 -13 24 -81 99 -476
523 -294 316 -311 328 -398 290z"/>
<path d="M5241 4797 c-13 -6 -34 -25 -45 -40 -20 -28 -21 -40 -24 -447 l-3
-419 -194 -3 -194 -3 -30 -29 c-35 -33 -49 -86 -33 -121 12 -27 77 -102 341
-395 228 -253 338 -367 373 -386 31 -16 76 -18 111 -5 40 15 685 710 712 768
19 40 19 76 0 113 -28 54 -55 60 -260 60 l-185 0 -1 403 c0 284 -4 412 -12
437 -7 19 -27 44 -46 57 -33 22 -41 23 -260 23 -159 0 -233 -4 -250 -13z"/>
<path d="M439 3047 c-99 -28 -181 -96 -223 -186 -21 -46 -21 -50 -24 -1231 -2
-1179 -2 -1185 19 -1254 18 -59 30 -78 82 -131 45 -45 78 -68 120 -84 l59 -21
1351 2 1352 3 60 29 c33 16 80 50 105 75 87 87 92 104 200 703 54 299 115 645
136 770 38 226 38 227 21 281 -39 125 -132 195 -268 204 l-79 6 0 116 c0 140
-19 192 -95 259 -84 74 -64 72 -820 72 -522 0 -675 3 -687 13 -8 6 -60 73
-115 147 -106 145 -143 181 -213 214 -43 20 -62 21 -490 23 -332 2 -457 -1
-491 -10z m898 -250 c12 -7 69 -75 126 -152 56 -77 121 -155 143 -173 75 -62
69 -62 803 -62 604 0 666 -1 683 -17 15 -13 18 -31 18 -99 l0 -84 -1202 -2
-1203 -3 -57 -23 c-70 -28 -150 -98 -189 -166 l-29 -51 2 398 3 399 28 24 28
24 412 0 c305 -1 418 -4 434 -13z m2105 -844 c10 -9 18 -30 18 -47 0 -96 -241
-1413 -266 -1458 -11 -19 -38 -43 -64 -55 l-44 -23 -1284 0 c-1372 0 -1310 -2
-1355 48 -30 33 -29 79 7 302 66 411 197 1133 211 1159 14 28 48 62 80 79 14
8 397 11 1349 12 1223 0 1331 -1 1348 -17z"/>
<path d="M4189 3047 c-95 -27 -173 -90 -221 -180 l-23 -42 0 -1210 0 -1210 33
-67 c36 -74 95 -132 170 -170 l47 -23 1370 0 1370 0 62 34 c76 41 146 113 178
184 16 35 44 161 85 387 130 713 200 1127 200 1185 0 142 -116 261 -266 273
l-62 5 -4 116 c-3 94 -8 125 -26 162 -27 55 -82 113 -137 142 -40 22 -44 22
-804 25 -583 2 -768 5 -780 15 -8 7 -58 71 -111 142 -53 72 -116 147 -140 168
-80 73 -70 72 -505 74 -288 2 -402 -1 -436 -10z m795 -266 c15 -14 64 -77 111
-141 46 -65 105 -136 131 -159 83 -73 56 -71 890 -71 l743 0 15 -22 c11 -16
16 -46 16 -100 l0 -78 -1198 0 c-1328 0 -1250 4 -1358 -65 -53 -34 -134 -125
-134 -151 0 -8 -3 -14 -7 -14 -9 0 -6 741 2 777 12 50 32 53 412 50 l351 -2
26 -24z m2222 -837 c16 -24 16 -33 0 -142 -21 -141 -222 -1252 -237 -1304 -12
-47 -54 -97 -96 -114 -27 -12 -255 -14 -1320 -14 -1268 0 -1289 0 -1321 20
-18 11 -39 35 -48 53 -18 39 -20 28 87 702 80 498 122 708 153 755 49 75 -63
70 1428 70 l1338 0 16 -26z"/>
</g>
</svg>
